ply
format ascii 1.0
element vertex 16
property float x
property float y
property float z
property uchar red
property uchar green
property uchar blue
element face 9
property list uchar int vertex_indices
end_header
14.970519 16.357641 -15.658994 184 165 117
15.174409 16.035631 -16.329080 181 162 114
14.937141 17.038099 -15.660121 175 155 106
15.008652 16.570519 -15.741603 185 163 113
15.219581 16.613797 -16.645988 176 156 111
11.020302 20.030852 4.605483 126 112 81
11.137585 19.728836 4.568135 103 86 55
16.039663 11.930263 -7.485007 197 176 128
16.257384 11.677677 -8.119478 218 196 150
15.975887 12.084231 -7.487438 121 111 86
14.300204 17.521771 -13.095565 161 143 100
14.144355 17.482354 -12.247046 189 168 119
10.891269 19.957398 4.675927 223 201 155
15.206188 15.760656 -15.653178 105 95 72
14.401742 16.908425 -12.575328 175 156 112
15.294554 16.077254 -16.247512 170 152 114
3 12 5 6
3 7 8 9
3 11 10 14
3 1 15 13
3 0 1 13
3 1 0 15
3 3 4 15
3 0 3 15
3 3 0 2
