ply
format ascii 1.0
element vertex 69
property float x
property float y
property float z
property uchar red
property uchar green
property uchar blue
element face 38
property list uchar int vertex_indices
end_header
15.660271 23.329110 -11.280220 195 176 142
15.382461 23.222737 -10.530992 194 176 142
6.631249 24.368394 17.545890 97 92 87
14.802382 16.073602 -8.718544 194 173 138
15.447796 23.090573 -11.238209 191 172 140
7.947170 23.404647 10.148698 112 104 88
13.835073 13.741229 -7.366465 175 155 127
6.868090 24.315190 17.202266 104 94 83
13.668948 14.759514 -8.435021 181 162 133
14.385724 14.503525 -8.763239 195 175 140
13.922986 14.074383 -8.134233 176 156 128
6.619616 24.335788 17.676047 87 78 71
14.291292 15.611092 -8.379537 195 175 140
8.390199 23.817251 9.756374 88 79 70
12.538977 13.473407 -4.361277 185 168 140
14.625160 15.571762 -8.070639 201 179 143
7.109707 16.875855 1.622978 170 157 130
7.233832 16.774974 1.813672 166 154 130
12.565774 13.495913 -5.096522 177 157 129
7.659384 16.936185 1.819517 195 174 134
13.133971 13.818612 -7.290140 178 159 128
12.573338 13.425591 -7.806806 172 157 133
7.334308 16.862338 1.752056 203 187 156
12.987490 18.644529 -2.171489 197 178 142
6.902260 24.717711 18.539689 109 98 82
14.249139 23.209663 -6.686549 196 177 146
6.631893 24.760583 18.754307 106 94 80
12.640778 23.678540 -1.450127 223 203 176
12.723130 23.568737 -1.108126 195 174 141
14.444033 23.113985 -7.323909 192 173 141
14.299089 23.139591 -7.319502 206 186 154
14.000338 23.190220 -6.822297 192 173 142
15.183624 22.982661 -10.787354 196 178 144
15.216580 23.089245 -10.494166 148 134 110
12.171279 18.393643 -4.291201 196 176 140
6.690003 24.788950 18.878902 110 98 84
6.765556 24.163972 15.320265 36 34 34
14.151350 20.428239 -6.235636 113 107 97
6.751589 24.066950 14.850859 111 99 84
6.742606 24.102589 15.763906 109 97 83
12.606511 23.959346 -0.810310 196 174 144
14.986095 22.615655 -11.364437 176 162 140
15.037909 20.411848 -8.696506 121 107 89
6.865742 24.512551 17.798666 107 96 86
6.810029 24.549607 17.933182 105 95 80
6.576774 24.313929 17.000368 111 100 92
15.256814 20.435378 -9.106469 199 181 152
12.780199 18.969610 -4.180731 200 177 142
12.426511 19.256360 -4.327204 199 176 142
14.405159 20.448988 -6.123785 188 169 136
14.980081 20.265009 -8.818502 121 108 89
14.135115 14.237336 -7.623328 175 155 127
8.411315 23.907553 10.255327 86 77 70
12.252398 18.760980 -4.790292 173 153 126
13.433249 20.001050 -6.089234 182 166 134
6.718913 24.303743 16.767260 105 95 81
6.703258 24.271943 16.753715 99 90 77
14.178636 20.290045 -5.172272 182 163 136
14.125480 20.228387 -5.941765 130 116 98
14.141973 20.335392 -5.438841 183 164 137
14.241923 20.358142 -5.578299 193 172 140
13.069598 18.323548 -1.651699 185 166 137
13.161975 18.770331 -1.955838 177 161 138
12.570513 13.338303 -5.226700 200 178 142
12.804231 13.331802 -7.435958 174 154 126
12.637925 13.326946 -6.860751 192 172 137
12.750656 13.608708 -7.719103 177 158 127
12.706465 13.354810 -7.635860 177 158 127
12.676820 13.463036 -7.720590 184 165 130
3 22 16 17
3 19 16 22
3 19 22 17
3 24 44 43
3 35 24 26
3 7 2 56
3 39 38 36
3 13 52 5
3 45 55 56
3 61 62 23
3 37 58 59
3 58 37 54
3 49 37 59
3 11 7 56
3 55 11 56
3 48 53 47
3 53 34 47
3 58 57 59
3 64 67 65
3 67 68 21
3 66 67 64
3 67 66 68
3 68 66 21
3 27 28 40
3 60 49 59
3 57 60 59
3 18 63 14
3 46 50 42
3 10 9 8
3 20 66 64
3 12 15 3
3 30 29 25
3 31 30 25
3 51 10 6
3 1 33 4
3 0 1 4
3 4 32 41
3 33 32 4
