ply
format ascii 1.0
element vertex 113
property float x
property float y
property float z
property uchar red
property uchar green
property uchar blue
element face 96
property list uchar int vertex_indices
end_header
14.228721 23.407066 -5.304789 186 168 143
14.341322 22.646423 -4.194916 187 170 142
14.490894 22.140520 -1.431263 210 190 167
14.606540 22.592910 -4.715028 147 134 114
14.548512 22.146570 -1.599127 134 119 106
11.949243 25.092345 5.317574 115 106 93
12.483938 19.623155 -1.556525 188 169 141
14.500452 23.675529 -6.192990 180 161 135
12.457368 21.729865 -0.136743 187 169 141
14.235486 23.063606 -4.426674 190 172 144
14.378437 23.412319 -5.268068 185 168 143
11.865098 19.941636 -0.938781 187 167 139
11.812738 20.063806 -1.380015 188 173 150
12.498654 21.514215 -0.065764 200 181 150
7.081776 19.586293 7.377246 101 93 83
12.245674 20.822429 -0.582459 200 181 150
11.777670 25.226946 5.804057 182 166 143
11.726824 25.468486 4.992061 191 174 149
11.774600 25.228803 5.245922 121 108 92
12.194508 19.376195 -1.864393 137 125 109
14.380549 23.095241 -1.934083 201 180 155
11.797914 25.131072 4.123743 109 95 76
14.318361 22.944285 -1.907781 156 139 120
14.066271 22.798783 -3.947962 176 160 134
11.048169 25.502929 4.275783 184 168 145
14.239354 23.211224 -4.937181 104 95 85
14.613982 21.790060 -1.456003 135 117 95
14.665581 23.814822 -6.560969 103 93 84
14.483580 23.492867 -4.839459 150 132 112
14.096862 23.124447 -1.206837 193 176 154
14.487851 24.556325 -6.887793 100 91 86
14.247086 24.503532 -5.725598 169 153 134
13.797315 24.323225 -1.796777 196 182 163
14.458384 24.062129 -5.595133 148 131 108
14.783621 22.426434 -4.598928 140 128 111
14.444319 22.071898 -1.109739 124 116 107
14.586395 22.238860 -1.752801 203 184 160
14.506769 22.220112 -1.476265 211 192 167
14.490435 22.395808 -1.518027 198 180 154
14.315318 22.766147 -1.162439 57 47 43
19.312453 20.447238 -15.915544 146 131 116
19.365656 20.135058 -16.098566 136 126 117
12.510112 19.123192 -1.740826 190 170 142
13.300899 22.116533 -2.577393 112 101 85
14.622022 22.437932 -2.334937 131 117 103
13.706155 22.766467 -3.810644 104 91 79
14.479868 23.844035 -5.958803 133 120 102
14.626881 23.889533 -6.545811 189 170 144
14.491129 22.847782 -4.332180 152 134 113
13.130438 21.972232 -2.069987 130 117 101
17.984111 13.877562 -10.282316 101 85 74
14.525702 23.833246 -6.447441 188 171 143
14.441514 24.255146 -6.143307 186 167 141
13.951468 23.975380 -1.696513 81 70 59
14.557887 22.184650 -1.710187 123 109 95
13.651436 24.293330 -0.601534 151 139 130
14.000650 25.057336 -7.314391 182 164 136
13.721548 24.083942 -0.661019 76 64 52
14.125392 23.218828 -1.616761 151 134 114
14.506429 23.991515 -6.075199 143 128 110
14.576759 24.051010 -6.658761 109 99 85
18.094798 13.392695 -10.975824 155 143 122
17.889047 13.541630 -10.477341 102 92 74
13.508061 25.102027 -6.827928 183 167 139
14.443100 24.449269 -6.630005 136 125 110
14.224320 24.456909 -6.703884 138 125 110
13.086362 22.039555 -2.087141 110 97 81
17.756029 14.191893 -9.931697 134 118 102
12.837671 21.932646 -1.301497 187 169 141
14.568612 23.918958 -6.305912 122 112 95
14.621574 23.907301 -6.684809 123 113 95
12.678411 19.214857 -1.564218 109 100 89
18.650695 20.327171 -15.027831 153 138 121
11.039443 25.848343 3.104016 194 177 149
14.568624 23.763263 -6.529499 176 158 133
10.949096 25.668477 3.791410 196 178 150
13.312904 18.884752 -2.803123 192 173 145
14.430866 24.178829 -5.040655 133 120 110
11.128981 25.774322 3.731891 128 114 101
11.626713 26.045549 3.165120 129 116 102
14.776136 23.970044 -6.804789 192 173 147
14.470664 23.566041 -5.951237 187 168 139
11.497117 25.726409 3.842118 126 113 98
11.830648 25.867543 3.355103 138 124 111
14.268098 23.123345 -1.542382 136 121 106
14.199067 23.155472 -1.374848 217 195 166
14.531794 23.954946 -5.479807 128 115 98
18.021385 14.578916 -10.479097 158 145 126
12.110729 21.241785 -0.759822 128 113 97
14.570976 23.748216 -6.051250 182 165 142
14.408485 22.905736 -1.736018 163 147 130
11.992981 20.962713 -1.068914 122 109 94
13.279775 19.065487 -2.732078 191 172 145
14.232928 23.241076 -5.135875 192 176 151
14.003617 23.182721 -5.000337 202 185 162
13.780442 24.168969 -1.188961 69 62 54
14.467386 23.995581 -6.658987 127 114 100
14.573150 23.960856 -6.637092 189 171 143
14.044856 22.397013 -3.784218 200 185 165
7.501316 19.182159 7.541455 147 137 125
12.525619 21.796134 -0.778766 196 178 149
14.657236 22.091275 -2.027397 152 139 128
7.602686 19.110793 7.366147 141 132 119
14.207926 23.519788 -5.771370 138 126 107
13.989830 23.846320 -6.145961 130 119 100
14.443970 22.755801 -1.886169 151 135 118
18.792464 19.916092 -14.932206 121 109 93
19.030317 20.206390 -15.493537 82 74 66
13.791397 24.728326 -6.981428 130 116 98
13.663801 24.256394 -6.418456 186 170 149
12.488833 21.466467 -0.800929 142 125 107
12.138341 20.424314 -1.654466 139 123 104
13.009304 19.023891 -2.445588 176 162 138
3 102 99 14
3 103 51 104
3 1 3 48
3 3 34 48
3 87 50 67
3 62 50 61
3 50 62 67
3 98 23 45
3 23 98 1
3 22 44 105
3 32 53 95
3 56 63 108
3 86 77 33
3 107 41 40
3 112 76 92
3 15 88 91
3 44 38 105
3 84 90 85
3 85 90 39
3 38 90 105
3 90 38 39
3 22 29 58
3 29 85 58
3 29 84 85
3 21 82 24
3 51 96 104
3 97 70 47
3 70 96 51
3 96 70 97
3 57 55 95
3 107 72 106
3 11 6 111
3 12 11 111
3 42 71 6
3 38 2 101
3 26 35 101
3 35 38 101
3 49 43 66
3 68 49 66
3 94 93 103
3 28 9 48
3 9 1 48
3 9 23 1
3 29 20 84
3 20 29 22
3 20 22 105
3 90 20 105
3 20 90 84
3 5 16 18
3 18 16 17
3 79 82 83
3 65 109 104
3 96 65 104
3 65 108 109
3 65 56 108
3 89 80 27
3 19 42 6
3 36 38 44
3 81 89 27
3 81 74 89
3 82 78 24
3 60 97 47
3 60 96 97
3 60 65 96
3 46 60 47
3 60 46 59
3 70 69 47
3 69 46 47
3 69 51 33
3 69 70 51
3 59 69 33
3 46 69 59
3 74 7 89
3 81 7 74
3 13 8 100
3 54 36 44
3 54 44 101
3 2 54 101
3 37 2 38
3 36 37 38
3 75 78 73
3 78 75 24
3 52 59 33
3 52 60 59
3 60 52 65
3 10 9 28
3 110 13 100
3 4 54 2
3 37 4 2
3 54 4 36
3 4 37 36
3 64 52 31
3 52 64 65
3 9 0 25
3 10 0 9
3 64 30 65
