ply
format ascii 1.0
element vertex 110
property float x
property float y
property float z
property uchar red
property uchar green
property uchar blue
element face 84
property list uchar int vertex_indices
end_header
11.661976 19.272799 5.560011 139 124 106
11.877380 19.236042 4.741961 204 186 158
11.635591 19.510603 5.422592 202 183 151
11.399489 19.671113 4.769130 205 186 153
13.934698 15.918615 -17.646415 180 161 130
10.278851 20.148860 0.491581 95 86 73
19.861089 10.767059 -19.105207 91 78 66
19.598421 10.616384 -18.745829 71 61 49
19.822879 10.407916 -19.748410 93 81 68
10.172111 19.378695 0.561597 126 111 91
19.075741 10.080032 -19.659404 123 109 91
18.918245 10.460797 -19.620676 82 73 59
19.550158 10.563039 -19.305031 139 124 103
14.186119 14.625696 -14.086550 179 161 130
11.367200 19.551195 -0.413595 134 121 99
14.188119 15.083109 -15.798576 180 161 131
10.415323 19.260592 -0.265317 180 161 131
14.330252 15.164013 -15.106875 177 158 126
14.386328 14.013508 -14.442255 181 162 130
9.749238 20.111280 0.092389 192 173 141
13.903134 14.026632 -15.026545 177 159 128
14.074470 14.368186 -14.684556 188 169 137
9.851762 20.132421 -0.460369 179 161 130
14.144739 16.064342 -17.786806 182 163 132
17.219071 6.972086 -21.898092 174 157 128
14.078814 15.192015 -17.718127 178 160 129
14.091697 15.692787 -18.298219 178 160 129
17.445079 6.745696 -21.653283 172 155 126
17.207793 6.764309 -21.867783 174 157 128
14.354959 15.945870 -14.452597 178 160 130
16.366309 8.419894 -23.494664 173 156 126
16.814448 6.601827 -23.003909 173 156 127
16.392339 8.433964 -21.764079 169 152 122
13.956382 15.367782 -17.809394 177 160 130
17.401196 7.235531 -22.440360 163 146 119
14.025718 15.241202 -17.793615 180 162 131
16.849117 9.216574 -22.016640 175 158 128
14.161233 15.849607 -18.225243 179 160 129
14.145230 14.817410 -15.118332 176 158 128
14.045793 16.564075 -12.251081 186 167 136
13.956750 15.085696 -17.405132 176 159 128
17.223275 6.614077 -22.460276 161 145 121
17.025006 7.140241 -22.551383 158 141 117
16.494395 7.460578 -22.512236 173 156 127
12.210843 18.561036 -7.639488 101 90 77
10.286648 19.562932 1.006868 89 79 64
10.693375 20.411631 -0.983752 166 148 123
11.071590 20.199673 -1.293241 180 161 131
10.870455 20.270456 -0.774871 180 161 131
10.524964 20.359151 -0.538995 182 163 132
10.187338 19.878144 1.179205 95 87 71
10.405279 20.020242 0.477112 99 90 76
14.155062 13.985565 -14.771383 106 94 76
10.204830 19.653702 0.336597 175 157 126
10.336163 20.043338 -1.124432 181 162 132
11.351661 17.634646 -5.232907 181 162 132
11.616986 17.558093 -5.899787 179 161 131
14.168416 15.210716 -17.413357 96 86 69
14.447713 13.540979 -15.482116 172 155 126
10.700172 20.094389 -0.491122 180 161 130
10.306811 19.312861 0.271800 179 160 130
10.690955 19.888839 -0.166821 179 161 131
14.306394 15.622586 -16.643500 181 162 132
14.139362 15.704194 -17.698136 174 155 124
11.805177 18.469394 -7.573082 184 166 135
13.947086 14.987345 -16.921450 180 161 130
14.112576 15.342735 -17.445311 179 162 130
11.535480 17.699586 -5.146996 179 161 130
16.418737 7.955697 -23.053939 162 146 118
10.315387 20.035121 -0.066994 164 147 120
10.679730 19.931011 -0.524036 182 163 132
17.566024 6.443726 -22.236087 161 145 118
16.440623 8.274522 -23.596065 159 142 115
16.749491 7.239292 -22.704675 175 158 129
16.414040 8.796566 -20.817911 179 161 130
17.031061 8.043986 -22.549062 174 157 128
16.854291 7.721471 -22.782454 176 159 130
17.088899 7.779156 -22.910415 175 158 129
16.703460 8.216159 -22.022101 175 157 128
16.775312 8.966349 -21.110112 174 157 127
14.192265 16.318186 -13.146837 179 160 130
14.274496 15.987028 -12.418297 181 162 132
14.320330 16.510302 -13.874767 178 160 130
16.858911 9.627512 -21.927186 174 157 127
16.924641 9.778338 -21.713322 173 156 126
16.999657 9.701877 -22.123055 177 159 128
14.319758 16.771788 -14.769594 177 160 130
12.007353 18.828240 -8.228589 178 161 131
17.329679 6.318580 -22.877764 169 152 124
17.253044 9.984882 -21.512161 172 155 125
15.765794 7.425364 -22.834268 180 162 132
11.546413 18.392058 -7.709924 183 165 135
16.943719 8.609399 -21.353896 172 155 125
17.336429 7.656883 -22.347573 173 155 124
15.769811 7.149360 -23.347726 172 155 125
15.923381 6.936054 -23.793807 175 158 128
16.191811 6.701230 -23.961921 173 156 126
16.255372 7.136711 -23.292727 173 156 126
10.632027 19.309760 -0.582249 178 160 130
17.975078 7.439951 -21.297898 172 155 126
16.958411 8.936594 -20.965643 176 158 128
11.351832 18.252106 -8.062107 204 189 167
11.594823 18.736725 -7.540007 182 164 134
15.643402 7.942191 -23.093860 174 157 127
11.752740 18.539927 -7.792200 181 163 133
15.639186 7.550805 -23.196074 173 156 126
11.362128 17.788927 -5.362966 186 169 139
16.144673 8.122207 -23.381679 162 145 116
15.615334 7.944749 -23.021783 184 164 133
17.953507 6.899123 -21.036522 175 157 127
3 19 22 69
3 59 48 14
3 48 46 47
3 70 59 14
3 48 49 46
3 49 48 59
3 70 54 59
3 54 49 59
3 49 54 46
3 95 96 97
3 94 95 97
3 104 102 101
3 2 1 0
3 36 32 79
3 90 94 97
3 87 102 104
3 3 2 0
3 6 12 7
3 85 84 89
3 84 83 89
3 83 84 85
3 43 68 97
3 99 27 109
3 105 90 103
3 90 105 94
3 105 103 108
3 94 105 108
3 38 17 15
3 86 29 82
3 63 33 35
3 26 33 63
3 25 40 65
3 67 106 55
3 91 64 104
3 91 104 101
3 64 44 104
3 44 87 104
3 41 27 28
3 58 52 20
3 52 21 20
3 66 63 35
3 40 66 35
3 25 66 40
3 100 74 92
3 74 100 79
3 71 41 88
3 41 71 27
3 31 41 42
3 41 31 88
3 78 92 32
3 27 24 28
3 24 41 28
3 107 72 30
3 72 107 68
3 18 13 21
3 52 18 21
3 37 26 63
3 23 37 63
3 26 37 4
3 37 23 4
3 39 80 81
3 66 57 62
3 57 66 25
3 57 25 65
3 73 31 42
3 73 76 43
3 76 73 42
3 93 77 76
3 34 93 42
3 93 76 42
3 93 75 77
3 5 51 61
3 50 51 5
3 45 53 9
3 50 53 45
3 56 67 55
3 16 60 9
3 98 60 16
3 8 12 11
3 10 8 11
3 24 34 42
3 41 24 42
3 77 75 76
3 75 78 76
