ply
format ascii 1.0
element vertex 110
property float x
property float y
property float z
property uchar red
property uchar green
property uchar blue
element face 127
property list uchar int vertex_indices
end_header
8.102440 24.075288 10.249009 103 92 69
16.403271 12.242995 -22.721847 158 143 113
7.985361 23.930637 8.923300 171 156 119
8.105989 23.600006 8.749812 163 147 115
7.971949 23.890028 9.241181 186 170 136
7.722416 23.763383 9.645165 163 148 113
8.147494 24.546966 9.189763 175 158 123
16.886737 12.253077 -23.164878 156 141 112
16.715284 11.826092 -22.560383 154 139 109
16.832637 11.648717 -22.799227 156 140 111
9.390580 20.973849 3.462173 156 140 111
16.748287 11.709393 -21.601227 155 139 110
8.061889 23.576885 8.930060 162 146 114
7.987597 23.613229 9.181395 161 145 113
14.604528 12.090515 -19.989606 154 139 108
14.028925 12.429090 -19.446472 156 141 110
14.014766 12.283362 -19.571997 160 145 115
14.750476 12.517154 -19.191603 155 140 110
13.220477 16.748386 -11.871232 170 155 124
13.029864 16.910318 -11.292747 177 162 131
13.048624 16.751762 -11.492173 182 167 136
14.348591 17.229384 -13.158655 179 163 132
9.252607 21.211926 4.103192 154 138 109
7.995282 23.871608 10.310409 94 87 70
7.969388 23.794242 10.618450 171 153 120
7.968507 23.714693 10.390227 99 91 74
7.966380 23.666491 10.056785 103 96 79
7.964177 23.594172 9.728505 101 92 78
10.676383 18.447986 -5.124430 98 90 76
8.052442 24.254482 9.510717 175 159 126
14.343451 12.203131 -19.921836 152 137 107
8.125031 24.339353 9.639875 160 145 113
8.068799 24.135183 9.927502 99 92 75
7.948829 23.939988 9.662191 178 159 125
15.563318 13.597016 -22.244132 152 137 106
7.459847 23.627101 10.288163 172 157 122
7.850749 23.688546 9.528834 172 155 118
8.045225 23.351257 9.029068 160 145 114
10.855668 18.655333 -5.140834 160 144 113
7.915484 24.261752 10.130920 118 109 92
7.942166 23.707583 9.648697 165 149 117
7.964049 23.605602 9.310896 164 149 117
8.110633 23.087436 9.221258 170 152 118
10.584243 18.542488 -4.535740 158 142 111
7.993396 23.586844 9.151689 161 146 115
7.995028 23.564183 9.263641 161 146 115
8.044862 23.959387 10.216026 171 155 122
7.973557 24.398185 9.527056 166 151 115
7.925539 24.348305 9.753830 166 151 116
8.043245 23.845930 10.254211 172 154 121
13.334987 16.858123 -13.345537 175 159 129
8.018024 23.638296 10.501366 187 173 142
13.232207 16.527447 -13.336948 157 142 111
13.338679 16.482506 -12.952847 157 141 110
13.148842 16.758153 -11.994779 167 152 122
8.042276 24.115635 10.091882 177 160 129
7.916265 23.532576 9.294764 162 145 114
8.030422 23.493359 9.381527 163 147 115
8.323862 23.056071 9.646801 168 153 120
13.261071 17.407190 -12.426912 159 144 114
13.258819 17.078186 -12.297595 158 143 113
14.074666 12.821010 -19.498306 154 139 109
8.004757 23.965403 10.244595 192 178 144
13.971657 12.444694 -19.460424 148 137 113
14.192665 12.290159 -19.678067 159 146 120
17.110257 11.933649 -22.901690 152 142 121
16.953223 12.045982 -22.767997 152 143 120
14.367820 12.640573 -19.972802 168 155 131
14.062256 16.583891 -17.681833 175 160 128
13.696264 16.691238 -13.295545 163 148 118
15.916095 13.146961 -22.731655 156 141 111
16.928424 11.799649 -22.669060 156 140 112
10.956374 18.429833 -5.665566 156 140 110
14.036119 16.029569 -17.704211 155 141 121
13.949478 16.424029 -17.902583 157 142 111
14.093820 17.071673 -17.293917 159 144 112
15.698634 13.855095 -22.195087 154 139 109
13.560827 16.706634 -12.917857 167 152 122
13.676813 16.676153 -13.254635 172 156 125
16.903196 11.946523 -21.209929 156 140 112
9.233753 21.113675 3.375893 156 140 111
14.602560 17.029710 -13.504127 164 148 117
14.626500 16.928277 -13.896566 167 151 120
16.853136 11.776071 -22.069861 156 140 112
15.666630 14.161519 -21.779947 160 144 113
13.502531 16.954072 -12.479288 178 161 130
8.048159 23.576602 9.964602 163 147 116
8.002285 23.582656 9.782855 165 149 117
7.987877 23.471841 9.027127 160 144 112
8.030704 23.492362 9.026609 161 146 114
7.759527 23.899843 9.743618 165 149 115
7.205944 23.301503 11.005808 163 147 115
16.535125 13.197989 -22.846088 157 141 111
7.521982 23.477294 10.212175 171 154 118
15.720801 13.483774 -22.433100 154 138 107
7.343825 23.399868 10.543682 167 152 119
15.516302 13.389736 -22.051171 153 138 107
7.525609 23.562648 10.424072 174 157 123
10.768167 18.518910 -5.116643 159 143 112
7.749654 23.993163 10.131861 171 152 115
7.560486 23.498973 10.107674 167 150 116
7.726811 23.352630 9.648615 195 179 144
7.937067 23.369026 9.173930 159 144 113
7.934480 23.133713 9.158161 161 146 114
14.483537 17.150121 -13.309602 179 163 133
7.979168 23.592980 9.466653 162 147 115
7.412033 23.303586 10.422380 166 149 115
15.988395 13.847365 -22.423501 156 141 110
7.363750 23.292740 10.507540 168 151 117
7.707328 23.138536 9.605699 187 172 139
3 90 29 99
3 99 47 48
3 29 47 99
3 47 6 48
3 6 47 29
3 100 99 97
3 100 90 99
3 100 35 90
3 70 76 94
3 31 6 29
3 22 80 10
3 37 103 42
3 58 86 42
3 35 5 90
3 5 2 90
3 88 89 56
3 100 95 35
3 2 4 90
3 33 23 29
3 33 40 23
3 33 4 40
3 33 29 90
3 4 33 90
3 23 32 29
3 32 31 29
3 39 99 48
3 102 103 37
3 89 102 37
3 102 89 88
3 57 37 42
3 86 57 42
3 57 89 37
3 15 17 14
3 107 76 70
3 89 3 56
3 46 24 86
3 49 46 86
3 40 26 23
3 27 26 40
3 87 57 86
3 87 27 57
3 26 87 86
3 87 26 27
3 93 5 35
3 95 93 35
3 91 93 95
3 101 102 88
3 103 101 109
3 102 101 103
3 101 88 56
3 108 91 95
3 96 70 94
3 92 107 70
3 27 105 57
3 105 27 40
3 46 0 24
3 0 32 23
3 24 0 23
3 32 0 31
3 39 62 51
3 62 49 51
3 25 24 23
3 26 25 23
3 24 25 86
3 25 26 86
3 5 36 2
3 93 36 5
3 36 4 2
3 4 36 40
3 108 106 91
3 106 93 91
3 106 101 93
3 101 106 109
3 107 84 76
3 8 7 1
3 57 12 89
3 12 3 89
3 55 0 46
3 0 55 31
3 55 39 31
3 55 62 39
3 73 68 74
3 34 96 94
3 76 34 94
3 64 15 14
3 30 64 14
3 105 45 57
3 45 12 57
3 12 13 3
3 3 13 56
3 13 36 56
3 36 13 40
3 68 75 74
3 16 64 30
3 63 61 15
3 64 63 15
3 63 67 61
3 63 16 67
3 16 63 64
3 9 71 8
3 66 7 8
3 71 66 8
3 45 44 12
3 44 13 12
3 104 21 82
3 81 104 82
3 60 85 59
3 50 52 53
3 78 69 85
3 9 83 71
3 83 11 79
3 65 66 71
3 44 41 13
3 41 105 40
3 13 41 40
3 41 45 105
3 41 44 45
3 28 43 38
3 77 78 85
3 54 20 19
3 20 18 19
3 28 98 43
3 98 28 72
3 43 98 38
3 98 72 38
3 62 55 49
3 55 46 49
